<?xml version="1.0" encoding="UTF-8"?><svg id="FINAL" xmlns="http://www.w3.org/2000/svg" viewBox="0 0 612 559"><path d="M228.06,309.5c-22.65,0-41.08-18.42-41.08-41.1,0-10.95,4.27-21.28,12.03-29.05,7.76-7.76,18.08-12.03,29.05-12.03h20.9v-56.01h-61.97v-46.06h-62.14v142.76c0,57.13,46.49,103.62,103.62,103.62h34.64v-62.14h-35.05Z"/><path d="M486.44,268.34c0,56.91-46.3,103.24-103.21,103.24h-33.85v-62.14h33.85c5.47,0,10.78-1.06,15.73-3.11,4.9-2.04,9.43-5.04,13.31-8.92,7.76-7.79,12.03-18.1,12.03-29.07,0-22.65-18.42-41.08-41.07-41.08h-4.83c-10.98,0-21.3,4.27-29.06,12.03-7.76,7.77-12.03,18.1-12.03,29.05l-.07,165.3h-62.13l.06-165.75c0-11.64,1.94-23.08,5.76-33.97,10.21-29.19,33.72-52.74,62.79-62.96l.26-.07c10.87-3.82,22.31-5.76,33.95-5.76h5.3c27.55,0,53.47,10.72,72.98,30.23,19.49,19.5,30.23,45.42,30.23,72.98Z"/></svg>